<svg xmlns="http://www.w3.org/2000/svg" viewBox="0 0 1600 1100" width="1600" height="1100">
<style>text { font-family: Arial, Helvetica, sans-serif; } .mono { font-family: Menlo, Consolas, monospace; }</style>
<defs>
<marker id="arrow-blue" markerWidth="10" markerHeight="7" refX="9" refY="3.5" orient="auto"><polygon points="0 0, 10 3.5, 0 7" fill="#2563eb"/></marker>
<marker id="arrow-orange" markerWidth="10" markerHeight="7" refX="9" refY="3.5" orient="auto"><polygon points="0 0, 10 3.5, 0 7" fill="#ea580c"/></marker>
<marker id="arrow-green" markerWidth="10" markerHeight="7" refX="9" refY="3.5" orient="auto"><polygon points="0 0, 10 3.5, 0 7" fill="#16a34a"/></marker>
<marker id="arrow-purple" markerWidth="10" markerHeight="7" refX="9" refY="3.5" orient="auto"><polygon points="0 0, 10 3.5, 0 7" fill="#9333ea"/></marker>
<marker id="arrow-gray" markerWidth="10" markerHeight="7" refX="9" refY="3.5" orient="auto"><polygon points="0 0, 10 3.5, 0 7" fill="#6b7280"/></marker>
</defs>
<rect width="1600" height="1100" fill="#ffffff"/>
<text x="60" y="46" fill="#111827" font-size="24" font-weight="700" text-anchor="start" >Static Ray Cluster V1 - Phase 1 Architecture</text>
<text x="60" y="70" fill="#6b7280" font-size="13" font-weight="400" text-anchor="start" >Current design and implementation: first-class StaticNodeCluster/StaticNode, node components, raw exporter metrics, dashboard resource status</text>
<rect x="50" y="95" width="1070" height="90" rx="10" fill="#f9fafb" fill-opacity="0.72" stroke="#e5e7eb" stroke-width="1.4" stroke-dasharray="8,5"/>
<text x="66" y="120" fill="#6b7280" font-size="12" font-weight="700" text-anchor="start" >INPUTS</text>
<text x="66" y="140" fill="#6b7280" font-size="12" font-weight="400" text-anchor="start" >Cluster spec and reusable capabilities</text>
<rect x="50" y="220" width="1070" height="330" rx="10" fill="#ffffff" fill-opacity="0.72" stroke="#d1d5db" stroke-width="1.4" stroke-dasharray="8,5"/>
<text x="66" y="245" fill="#6b7280" font-size="12" font-weight="700" text-anchor="start" >CONTROL PLANE</text>
<text x="66" y="265" fill="#6b7280" font-size="12" font-weight="400" text-anchor="start" >Resource derivation, planning, reconcile and status aggregation</text>
<rect x="50" y="585" width="1070" height="350" rx="10" fill="#ffffff" fill-opacity="0.72" stroke="#d1d5db" stroke-width="1.4" stroke-dasharray="8,5"/>
<text x="66" y="610" fill="#6b7280" font-size="12" font-weight="700" text-anchor="start" >STATIC NODE RUNTIME</text>
<text x="66" y="630" fill="#6b7280" font-size="12" font-weight="400" text-anchor="start" >SSH + Docker components reconciled per node</text>
<rect x="1160" y="220" width="380" height="330" rx="10" fill="#f9fafb" fill-opacity="0.72" stroke="#e5e7eb" stroke-width="1.4" stroke-dasharray="8,5"/>
<text x="1176" y="245" fill="#6b7280" font-size="12" font-weight="700" text-anchor="start" >FUTURE PHASE</text>
<text x="1176" y="265" fill="#6b7280" font-size="12" font-weight="400" text-anchor="start" >Designed but not in phase 1 implementation</text>
<rect x="1160" y="585" width="380" height="350" rx="10" fill="#ffffff" fill-opacity="0.72" stroke="#d1d5db" stroke-width="1.4" stroke-dasharray="8,5"/>
<text x="1176" y="610" fill="#6b7280" font-size="12" font-weight="700" text-anchor="start" >METRICS AND STATUS OUTPUTS</text>
<text x="1176" y="630" fill="#6b7280" font-size="12" font-weight="400" text-anchor="start" >Remote write and resource_info propagation</text>
<rect x="80" y="120" width="180" height="50" rx="8" fill="#eff6ff" stroke="#bfdbfe" stroke-width="1.5"/>
<circle cx="106" cy="148" r="16" fill="#ffffff" stroke="#bfdbfe" stroke-width="1.3"/>
<text x="106" y="153" fill="#111827" font-size="10" font-weight="700" text-anchor="middle" >API</text>
<text x="132" y="148" fill="#111827" font-size="13" font-weight="700" text-anchor="start" >Cluster API</text>
<text x="132" y="167" fill="#6b7280" font-size="11" font-weight="400" text-anchor="start" >type: ssh/static</text>
<rect x="310" y="120" width="180" height="50" rx="8" fill="#eff6ff" stroke="#bfdbfe" stroke-width="1.5"/>
<circle cx="336" cy="148" r="16" fill="#ffffff" stroke="#bfdbfe" stroke-width="1.3"/>
<text x="336" y="153" fill="#111827" font-size="10" font-weight="700" text-anchor="middle" >SSH</text>
<text x="362" y="148" fill="#111827" font-size="13" font-weight="700" text-anchor="start" >SSH Config</text>
<text x="362" y="167" fill="#6b7280" font-size="11" font-weight="400" text-anchor="start" >head IP / worker IP</text>
<rect x="540" y="120" width="190" height="50" rx="8" fill="#f0fdf4" stroke="#bbf7d0" stroke-width="1.5"/>
<circle cx="566" cy="148" r="16" fill="#ffffff" stroke="#bbf7d0" stroke-width="1.3"/>
<text x="566" y="153" fill="#111827" font-size="10" font-weight="700" text-anchor="middle" >IMG</text>
<text x="592" y="148" fill="#111827" font-size="13" font-weight="700" text-anchor="start" >Image Registry</text>
<text x="592" y="167" fill="#6b7280" font-size="11" font-weight="400" text-anchor="start" >offline image mirror</text>
<rect x="780" y="120" width="220" height="50" rx="8" fill="#faf5ff" stroke="#e9d5ff" stroke-width="1.5"/>
<circle cx="806" cy="148" r="16" fill="#ffffff" stroke="#e9d5ff" stroke-width="1.3"/>
<text x="806" y="153" fill="#111827" font-size="10" font-weight="700" text-anchor="middle" >ACC</text>
<text x="832" y="148" fill="#111827" font-size="13" font-weight="700" text-anchor="start" >Accelerator Profile</text>
<text x="832" y="167" fill="#6b7280" font-size="11" font-weight="400" text-anchor="start" >runtime + exporter</text>
<rect x="90" y="270" width="190" height="72" rx="8" fill="#eff6ff" stroke="#bfdbfe" stroke-width="1.5"/>
<circle cx="116" cy="298" r="16" fill="#ffffff" stroke="#bfdbfe" stroke-width="1.3"/>
<text x="116" y="303" fill="#111827" font-size="10" font-weight="700" text-anchor="middle" >CTL</text>
<text x="142" y="298" fill="#111827" font-size="13" font-weight="700" text-anchor="start" >ClusterController</text>
<text x="142" y="317" fill="#6b7280" font-size="11" font-weight="400" text-anchor="start" >dispatch by cluster type</text>
<text x="142" y="331" fill="#6b7280" font-size="11" font-weight="400" text-anchor="start" >internal/cluster/reconcile.go</text>
<rect x="325" y="270" width="220" height="72" rx="8" fill="#eff6ff" stroke="#bfdbfe" stroke-width="1.5"/>
<circle cx="351" cy="298" r="16" fill="#ffffff" stroke="#bfdbfe" stroke-width="1.3"/>
<text x="351" y="303" fill="#111827" font-size="10" font-weight="700" text-anchor="middle" >SRC</text>
<text x="377" y="298" fill="#111827" font-size="13" font-weight="700" text-anchor="start" >staticRayCluster</text>
<text x="377" y="317" fill="#6b7280" font-size="11" font-weight="400" text-anchor="start" >build StaticNodeCluster</text>
<text x="377" y="331" fill="#6b7280" font-size="11" font-weight="400" text-anchor="start" >copy status to Cluster</text>
<rect x="590" y="270" width="205" height="72" rx="8" fill="#f0fdfa" stroke="#99f6e4" stroke-width="1.5"/>
<circle cx="616" cy="298" r="16" fill="#ffffff" stroke="#99f6e4" stroke-width="1.3"/>
<text x="616" y="303" fill="#111827" font-size="10" font-weight="700" text-anchor="middle" >SNC</text>
<text x="642" y="298" fill="#111827" font-size="13" font-weight="700" text-anchor="start" >StaticNodeCluster</text>
<text x="642" y="317" fill="#6b7280" font-size="11" font-weight="400" text-anchor="start" >resource desired state</text>
<text x="642" y="331" fill="#6b7280" font-size="11" font-weight="400" text-anchor="start" >head + nodes + registry</text>
<rect x="850" y="270" width="220" height="72" rx="8" fill="#faf5ff" stroke="#e9d5ff" stroke-width="1.5"/>
<circle cx="876" cy="298" r="16" fill="#ffffff" stroke="#e9d5ff" stroke-width="1.3"/>
<text x="876" y="303" fill="#111827" font-size="10" font-weight="700" text-anchor="middle" >ACC</text>
<text x="902" y="298" fill="#111827" font-size="13" font-weight="700" text-anchor="start" >AcceleratorManager</text>
<text x="902" y="317" fill="#6b7280" font-size="11" font-weight="400" text-anchor="start" >profile lookup</text>
<text x="902" y="331" fill="#6b7280" font-size="11" font-weight="400" text-anchor="start" >ResourceParser map</text>
<rect x="90" y="420" width="245" height="78" rx="8" fill="#fff7ed" stroke="#fed7aa" stroke-width="1.5"/>
<circle cx="116" cy="448" r="16" fill="#ffffff" stroke="#fed7aa" stroke-width="1.3"/>
<text x="116" y="453" fill="#111827" font-size="10" font-weight="700" text-anchor="middle" >SNC-R</text>
<text x="142" y="448" fill="#111827" font-size="13" font-weight="700" text-anchor="start" >StaticNodeClusterReconciler</text>
<text x="142" y="467" fill="#6b7280" font-size="11" font-weight="400" text-anchor="start" >BuildDesiredNodes()</text>
<text x="142" y="481" fill="#6b7280" font-size="11" font-weight="400" text-anchor="start" >AggregateStatus()</text>
<rect x="380" y="420" width="170" height="78" rx="8" fill="#f0fdfa" stroke="#99f6e4" stroke-width="1.5"/>
<circle cx="406" cy="448" r="16" fill="#ffffff" stroke="#99f6e4" stroke-width="1.3"/>
<text x="406" y="453" fill="#111827" font-size="10" font-weight="700" text-anchor="middle" >SN</text>
<text x="432" y="448" fill="#111827" font-size="13" font-weight="700" text-anchor="start" >StaticNode specs</text>
<text x="432" y="467" fill="#6b7280" font-size="11" font-weight="400" text-anchor="start" >IP as node name</text>
<text x="432" y="481" fill="#6b7280" font-size="11" font-weight="400" text-anchor="start" >warm + components</text>
<rect x="595" y="420" width="220" height="78" rx="8" fill="#fff7ed" stroke="#fed7aa" stroke-width="1.5"/>
<circle cx="621" cy="448" r="16" fill="#ffffff" stroke="#fed7aa" stroke-width="1.3"/>
<text x="621" y="453" fill="#111827" font-size="10" font-weight="700" text-anchor="middle" >SN-R</text>
<text x="647" y="448" fill="#111827" font-size="13" font-weight="700" text-anchor="start" >StaticNodeReconciler</text>
<text x="647" y="467" fill="#6b7280" font-size="11" font-weight="400" text-anchor="start" >warm images</text>
<text x="647" y="481" fill="#6b7280" font-size="11" font-weight="400" text-anchor="start" >config files + health</text>
<rect x="860" y="420" width="200" height="78" rx="8" fill="#f0fdf4" stroke="#bbf7d0" stroke-width="1.5"/>
<circle cx="886" cy="448" r="16" fill="#ffffff" stroke="#bbf7d0" stroke-width="1.3"/>
<text x="886" y="453" fill="#111827" font-size="10" font-weight="700" text-anchor="middle" >CFG</text>
<text x="912" y="448" fill="#111827" font-size="13" font-weight="700" text-anchor="start" >Image + Config Plan</text>
<text x="912" y="467" fill="#6b7280" font-size="11" font-weight="400" text-anchor="start" >registry rewrite</text>
<text x="912" y="481" fill="#6b7280" font-size="11" font-weight="400" text-anchor="start" >component hash</text>
<rect x="1200" y="280" width="290" height="64" rx="8" fill="#ffffff" stroke="#e5e7eb" stroke-width="1.5"/>
<circle cx="1226" cy="308" r="16" fill="#ffffff" stroke="#e5e7eb" stroke-width="1.3"/>
<text x="1226" y="313" fill="#111827" font-size="10" font-weight="700" text-anchor="middle" >P2</text>
<text x="1252" y="308" fill="#111827" font-size="13" font-weight="700" text-anchor="start" >neutree-metrics</text>
<text x="1252" y="327" fill="#6b7280" font-size="11" font-weight="400" text-anchor="start" >daemonset-like component</text>
<text x="1252" y="341" fill="#6b7280" font-size="11" font-weight="400" text-anchor="start" >GET /health + /metrics</text>
<rect x="1200" y="380" width="290" height="64" rx="8" fill="#ffffff" stroke="#e5e7eb" stroke-width="1.5"/>
<circle cx="1226" cy="408" r="16" fill="#ffffff" stroke="#e5e7eb" stroke-width="1.3"/>
<text x="1226" y="413" fill="#111827" font-size="10" font-weight="700" text-anchor="middle" >MAP</text>
<text x="1252" y="408" fill="#111827" font-size="13" font-weight="700" text-anchor="start" >Canonical Mapping</text>
<text x="1252" y="427" fill="#6b7280" font-size="11" font-weight="400" text-anchor="start" >node-exporter + DCGM</text>
<text x="1252" y="441" fill="#6b7280" font-size="11" font-weight="400" text-anchor="start" >neutree_* metrics</text>
<text x="1200" y="500" fill="#6b7280" font-size="12" font-weight="400" text-anchor="start" >Phase 1 keeps raw exporter metrics only.</text>
<text x="1200" y="520" fill="#6b7280" font-size="12" font-weight="400" text-anchor="start" >Controller / Engine / Ray metric alignment is later.</text>
<rect x="85" y="645" width="500" height="250" rx="10" fill="#ffffff" fill-opacity="0.72" stroke="#bfdbfe" stroke-width="1.4" stroke-dasharray="6,4"/>
<text x="101" y="670" fill="#6b7280" font-size="12" font-weight="700" text-anchor="start" >HEAD STATICNODE</text>
<text x="101" y="690" fill="#6b7280" font-size="12" font-weight="400" text-anchor="start" >name: head IP, role: head</text>
<rect x="115" y="705" width="120" height="58" rx="8" fill="#eff6ff" stroke="#bfdbfe" stroke-width="1.5"/>
<text x="175.0" y="733" fill="#111827" font-size="13" font-weight="700" text-anchor="middle" >ray-head</text>
<text x="175.0" y="754" fill="#6b7280" font-size="11" font-weight="400" text-anchor="middle" >dashboard :8265</text>
<rect x="255" y="705" width="130" height="58" rx="8" fill="#f0fdf4" stroke="#bbf7d0" stroke-width="1.5"/>
<text x="320.0" y="733" fill="#111827" font-size="13" font-weight="700" text-anchor="middle" >node-exporter</text>
<text x="320.0" y="754" fill="#6b7280" font-size="11" font-weight="400" text-anchor="middle" >:9100 /metrics</text>
<rect x="405" y="705" width="145" height="58" rx="8" fill="#f0fdf4" stroke="#bbf7d0" stroke-width="1.5"/>
<text x="477.5" y="733" fill="#111827" font-size="13" font-weight="700" text-anchor="middle" >dcgm-exporter</text>
<text x="477.5" y="754" fill="#6b7280" font-size="11" font-weight="400" text-anchor="middle" >:9400 /metrics</text>
<rect x="285" y="805" width="185" height="58" rx="8" fill="#fff7ed" stroke="#fed7aa" stroke-width="1.5"/>
<text x="377.5" y="833" fill="#111827" font-size="13" font-weight="700" text-anchor="middle" >vmagent</text>
<text x="377.5" y="853" fill="#6b7280" font-size="11" font-weight="400" text-anchor="middle" >config file</text>
<text x="377.5" y="867" fill="#6b7280" font-size="11" font-weight="400" text-anchor="middle" >remoteWrite.url</text>
<rect x="620" y="645" width="500" height="250" rx="10" fill="#ffffff" fill-opacity="0.72" stroke="#bfdbfe" stroke-width="1.4" stroke-dasharray="6,4"/>
<text x="636" y="670" fill="#6b7280" font-size="12" font-weight="700" text-anchor="start" >WORKER STATICNODE</text>
<text x="636" y="690" fill="#6b7280" font-size="12" font-weight="400" text-anchor="start" >name: worker IP, role: worker</text>
<rect x="650" y="705" width="130" height="58" rx="8" fill="#eff6ff" stroke="#bfdbfe" stroke-width="1.5"/>
<text x="715.0" y="733" fill="#111827" font-size="13" font-weight="700" text-anchor="middle" >ray-worker</text>
<text x="715.0" y="754" fill="#6b7280" font-size="11" font-weight="400" text-anchor="middle" >joins head :6379</text>
<rect x="805" y="705" width="130" height="58" rx="8" fill="#f0fdf4" stroke="#bbf7d0" stroke-width="1.5"/>
<text x="870.0" y="733" fill="#111827" font-size="13" font-weight="700" text-anchor="middle" >node-exporter</text>
<text x="870.0" y="754" fill="#6b7280" font-size="11" font-weight="400" text-anchor="middle" >:9100 /metrics</text>
<rect x="955" y="705" width="145" height="58" rx="8" fill="#f0fdf4" stroke="#bbf7d0" stroke-width="1.5"/>
<text x="1027.5" y="733" fill="#111827" font-size="13" font-weight="700" text-anchor="middle" >dcgm-exporter</text>
<text x="1027.5" y="754" fill="#6b7280" font-size="11" font-weight="400" text-anchor="middle" >:9400 /metrics</text>
<text x="650" y="848" fill="#6b7280" font-size="12" font-weight="400" text-anchor="start" >ray-worker depends on head ready</text>
<text x="650" y="868" fill="#6b7280" font-size="12" font-weight="400" text-anchor="start" >health via head dashboard ListNodes</text>
<ellipse cx="1345" cy="655" rx="125.0" ry="31.25" fill="#f0fdf4" stroke="#bbf7d0" stroke-width="1.5"/>
<rect x="1220.0" y="655" width="250" height="92" fill="#f0fdf4" stroke="none"/>
<line x1="1220.0" y1="655" x2="1220.0" y2="747" stroke="#bbf7d0" stroke-width="1.5"/>
<line x1="1470.0" y1="655" x2="1470.0" y2="747" stroke="#bbf7d0" stroke-width="1.5"/>
<ellipse cx="1345" cy="747" rx="125.0" ry="31.25" fill="#dcfce7" stroke="#bbf7d0" stroke-width="1.5"/>
<text x="1345" y="687" fill="#111827" font-size="13" font-weight="700" text-anchor="middle" >Metrics Backend</text>
<text x="1345" y="706" fill="#6b7280" font-size="11" font-weight="400" text-anchor="middle" >VictoriaMetrics or external</text>
<text x="1345" y="720" fill="#6b7280" font-size="11" font-weight="400" text-anchor="middle" >remote_write target</text>
<rect x="1210" y="785" width="270" height="64" rx="8" fill="#faf5ff" stroke="#e9d5ff" stroke-width="1.5"/>
<circle cx="1236" cy="813" r="16" fill="#ffffff" stroke="#e9d5ff" stroke-width="1.3"/>
<text x="1236" y="818" fill="#111827" font-size="10" font-weight="700" text-anchor="middle" >RAY</text>
<text x="1262" y="813" fill="#111827" font-size="13" font-weight="700" text-anchor="start" >Dashboard API Client</text>
<text x="1262" y="832" fill="#6b7280" font-size="11" font-weight="400" text-anchor="start" >GetClusterMetadata()</text>
<text x="1262" y="846" fill="#6b7280" font-size="11" font-weight="400" text-anchor="start" >ListNodes()</text>
<rect x="1210" y="875" width="270" height="64" rx="8" fill="#f0fdfa" stroke="#99f6e4" stroke-width="1.5"/>
<circle cx="1236" cy="903" r="16" fill="#ffffff" stroke="#99f6e4" stroke-width="1.3"/>
<text x="1236" y="908" fill="#111827" font-size="10" font-weight="700" text-anchor="middle" >STS</text>
<text x="1262" y="903" fill="#111827" font-size="13" font-weight="700" text-anchor="start" >Cluster.status.resource_info</text>
<text x="1262" y="922" fill="#6b7280" font-size="11" font-weight="400" text-anchor="start" >CPU / memory / accelerators</text>
<text x="1262" y="936" fill="#6b7280" font-size="11" font-weight="400" text-anchor="start" >per-node resources</text>
<path d="M 170,170 L 170,255 L 185,255 L 185,270" fill="none" stroke="#2563eb" stroke-width="1.8" marker-end="url(#arrow-blue)"/>
<rect x="172.5" y="223" width="79.0" height="18" rx="4" fill="#ffffff" opacity="0.96"/>
<text x="212" y="236" fill="#2563eb" font-size="11" font-weight="700" text-anchor="middle" >reconcile</text>
<path d="M 260,145 L 300,145 L 300,255 L 325,255 L 325,285" fill="none" stroke="#2563eb" stroke-width="1.8" marker-end="url(#arrow-blue)"/>
<rect x="291.5" y="213" width="79.0" height="18" rx="4" fill="#ffffff" opacity="0.96"/>
<text x="331" y="226" fill="#2563eb" font-size="11" font-weight="700" text-anchor="middle" >ssh nodes</text>
<path d="M 280,306 L 325,306" fill="none" stroke="#2563eb" stroke-width="1.8" marker-end="url(#arrow-blue)"/>
<path d="M 545,306 L 590,306" fill="none" stroke="#2563eb" stroke-width="1.8" marker-end="url(#arrow-blue)"/>
<rect x="514.5" y="281" width="107.0" height="18" rx="4" fill="#ffffff" opacity="0.96"/>
<text x="568" y="294" fill="#2563eb" font-size="11" font-weight="700" text-anchor="middle" >create/update</text>
<path d="M 795,306 L 850,306" fill="none" stroke="#9333ea" stroke-width="1.8" stroke-dasharray="6,4" marker-end="url(#arrow-purple)"/>
<rect x="789.0" y="281" width="70.0" height="18" rx="4" fill="#ffffff" opacity="0.96"/>
<text x="824" y="294" fill="#9333ea" font-size="11" font-weight="700" text-anchor="middle" >profile</text>
<path d="M 685,342 L 685,382 L 212,382 L 212,420" fill="none" stroke="#ea580c" stroke-width="1.8" marker-end="url(#arrow-orange)"/>
<rect x="420.0" y="357" width="70.0" height="18" rx="4" fill="#ffffff" opacity="0.96"/>
<text x="455" y="370" fill="#ea580c" font-size="11" font-weight="700" text-anchor="middle" >watch</text>
<path d="M 335,459 L 380,459" fill="none" stroke="#ea580c" stroke-width="1.8" marker-end="url(#arrow-orange)"/>
<path d="M 550,459 L 595,459" fill="none" stroke="#ea580c" stroke-width="1.8" marker-end="url(#arrow-orange)"/>
<path d="M 850,342 L 850,382 L 315,382 L 315,420" fill="none" stroke="#9333ea" stroke-width="1.8" stroke-dasharray="6,4" marker-end="url(#arrow-purple)"/>
<rect x="571.0" y="357" width="128.0" height="18" rx="4" fill="#ffffff" opacity="0.96"/>
<text x="635" y="370" fill="#9333ea" font-size="11" font-weight="700" text-anchor="middle" >exporter profile</text>
<path d="M 640,170 L 640,198 L 1110,198 L 1110,459 L 1060,459" fill="none" stroke="#16a34a" stroke-width="1.8" stroke-dasharray="6,4" marker-end="url(#arrow-green)"/>
<rect x="713.0" y="180" width="114.0" height="18" rx="4" fill="#ffffff" opacity="0.96"/>
<text x="770" y="193" fill="#16a34a" font-size="11" font-weight="700" text-anchor="middle" >image registry</text>
<path d="M 815,459 L 860,459" fill="none" stroke="#16a34a" stroke-width="1.8" marker-end="url(#arrow-green)"/>
<path d="M 705,498 L 705,570 L 335,570 L 335,645" fill="none" stroke="#ea580c" stroke-width="1.8" marker-end="url(#arrow-orange)"/>
<rect x="477.0" y="545" width="86.0" height="18" rx="4" fill="#ffffff" opacity="0.96"/>
<text x="520" y="558" fill="#ea580c" font-size="11" font-weight="700" text-anchor="middle" >SSH/Docker</text>
<path d="M 705,498 L 705,570 L 870,570 L 870,645" fill="none" stroke="#ea580c" stroke-width="1.8" marker-end="url(#arrow-orange)"/>
<rect x="757.0" y="545" width="86.0" height="18" rx="4" fill="#ffffff" opacity="0.96"/>
<text x="800" y="558" fill="#ea580c" font-size="11" font-weight="700" text-anchor="middle" >SSH/Docker</text>
<path d="M 960,498 L 960,570 L 590,570 L 590,834 L 470,834" fill="none" stroke="#16a34a" stroke-width="1.8" stroke-dasharray="6,4" marker-end="url(#arrow-green)"/>
<rect x="598.0" y="545" width="114.0" height="18" rx="4" fill="#ffffff" opacity="0.96"/>
<text x="655" y="558" fill="#16a34a" font-size="11" font-weight="700" text-anchor="middle" >vmagent config</text>
<path d="M 235,735 L 245,735 L 245,785 L 650,785 L 650,735" fill="none" stroke="#2563eb" stroke-width="1.8" marker-end="url(#arrow-blue)"/>
<rect x="409.0" y="761" width="72.0" height="18" rx="4" fill="#ffffff" opacity="0.96"/>
<text x="445" y="774" fill="#2563eb" font-size="11" font-weight="700" text-anchor="middle" >ray join</text>
<path d="M 175,763 L 175,880 L 1150,880 L 1150,817 L 1210,817" fill="none" stroke="#9333ea" stroke-width="1.8" stroke-dasharray="6,4" marker-end="url(#arrow-purple)"/>
<rect x="999.5" y="855" width="121.0" height="18" rx="4" fill="#ffffff" opacity="0.96"/>
<text x="1060" y="868" fill="#9333ea" font-size="11" font-weight="700" text-anchor="middle" >dashboard reads</text>
<path d="M 1345,849 L 1345,875" fill="none" stroke="#9333ea" stroke-width="1.8" stroke-dasharray="6,4" marker-end="url(#arrow-purple)"/>
<rect x="1348.5" y="853" width="121.0" height="18" rx="4" fill="#ffffff" opacity="0.96"/>
<text x="1409" y="866" fill="#9333ea" font-size="11" font-weight="700" text-anchor="middle" >parse resources</text>
<path d="M 320,763 L 320,790 L 350,805" fill="none" stroke="#16a34a" stroke-width="1.8" marker-end="url(#arrow-green)"/>
<rect x="305.0" y="774" width="70.0" height="18" rx="4" fill="#ffffff" opacity="0.96"/>
<text x="340" y="787" fill="#16a34a" font-size="11" font-weight="700" text-anchor="middle" >scrape</text>
<path d="M 478,763 L 438,805" fill="none" stroke="#16a34a" stroke-width="1.8" marker-end="url(#arrow-green)"/>
<rect x="437.0" y="780" width="70.0" height="18" rx="4" fill="#ffffff" opacity="0.96"/>
<text x="472" y="793" fill="#16a34a" font-size="11" font-weight="700" text-anchor="middle" >scrape</text>
<path d="M 870,763 L 870,910 L 377,910 L 377,863" fill="none" stroke="#16a34a" stroke-width="1.8" marker-end="url(#arrow-green)"/>
<rect x="593.0" y="885" width="70.0" height="18" rx="4" fill="#ffffff" opacity="0.96"/>
<text x="628" y="898" fill="#16a34a" font-size="11" font-weight="700" text-anchor="middle" >scrape</text>
<path d="M 1028,763 L 1028,930 L 410,930 L 410,863" fill="none" stroke="#16a34a" stroke-width="1.8" marker-end="url(#arrow-green)"/>
<rect x="685.0" y="905" width="70.0" height="18" rx="4" fill="#ffffff" opacity="0.96"/>
<text x="720" y="918" fill="#16a34a" font-size="11" font-weight="700" text-anchor="middle" >scrape</text>
<path d="M 470,834 L 1140,834 L 1140,690 L 1220,690" fill="none" stroke="#16a34a" stroke-width="1.8" marker-end="url(#arrow-green)"/>
<rect x="920.0" y="809" width="100.0" height="18" rx="4" fill="#ffffff" opacity="0.96"/>
<text x="970" y="822" fill="#16a34a" font-size="11" font-weight="700" text-anchor="middle" >remote_write</text>
<path d="M 1350,345 L 1350,380" fill="none" stroke="#6b7280" stroke-width="1.8" stroke-dasharray="6,4" marker-end="url(#arrow-gray)"/>
<rect x="1362.5" y="353" width="79.0" height="18" rx="4" fill="#ffffff" opacity="0.96"/>
<text x="1402" y="366" fill="#6b7280" font-size="11" font-weight="700" text-anchor="middle" >normalize</text>
<path d="M 1490,412 L 1530,412 L 1530,617 L 1490,617" fill="none" stroke="#6b7280" stroke-width="1.8" stroke-dasharray="6,4" marker-end="url(#arrow-gray)"/>
<rect x="1462.5" y="517" width="135.0" height="18" rx="4" fill="#ffffff" opacity="0.96"/>
<text x="1530" y="530" fill="#6b7280" font-size="11" font-weight="700" text-anchor="middle" >later scrape path</text>
<path d="M 1345,849 L 1345,875" fill="none" stroke="#9333ea" stroke-width="1.8" stroke-dasharray="6,4" marker-end="url(#arrow-purple)"/>
<rect x="90" y="960" width="385" height="58" rx="8" fill="#f9fafb" stroke="#e5e7eb" stroke-width="1.5"/>
<circle cx="116" cy="988" r="16" fill="#ffffff" stroke="#e5e7eb" stroke-width="1.3"/>
<text x="116" y="993" fill="#111827" font-size="10" font-weight="700" text-anchor="middle" >S1</text>
<text x="142" y="988" fill="#111827" font-size="13" font-weight="700" text-anchor="start" >Phase 1 Scope</text>
<text x="142" y="1007" fill="#6b7280" font-size="11" font-weight="400" text-anchor="start" >raw node/GPU exporter metrics</text>
<text x="142" y="1021" fill="#6b7280" font-size="11" font-weight="400" text-anchor="start" >no neutree-metrics canonical mapping</text>
<rect x="510" y="960" width="360" height="58" rx="8" fill="#f9fafb" stroke="#e5e7eb" stroke-width="1.5"/>
<circle cx="536" cy="988" r="16" fill="#ffffff" stroke="#e5e7eb" stroke-width="1.3"/>
<text x="536" y="993" fill="#111827" font-size="10" font-weight="700" text-anchor="middle" >GO</text>
<text x="562" y="988" fill="#111827" font-size="13" font-weight="700" text-anchor="start" >Implementation Files</text>
<text x="562" y="1007" fill="#6b7280" font-size="11" font-weight="400" text-anchor="start" >static_*_reconciler.go</text>
<text x="562" y="1021" fill="#6b7280" font-size="11" font-weight="400" text-anchor="start" >ray_resources.go + api/v1 types</text>
<rect x="905" y="960" width="360" height="58" rx="8" fill="#f9fafb" stroke="#e5e7eb" stroke-width="1.5"/>
<circle cx="931" cy="988" r="16" fill="#ffffff" stroke="#e5e7eb" stroke-width="1.3"/>
<text x="931" y="993" fill="#111827" font-size="10" font-weight="700" text-anchor="middle" >PKG</text>
<text x="957" y="988" fill="#111827" font-size="13" font-weight="700" text-anchor="start" >Offline Images</text>
<text x="957" y="1007" fill="#6b7280" font-size="11" font-weight="400" text-anchor="start" >serve runtime, node-exporter</text>
<text x="957" y="1021" fill="#6b7280" font-size="11" font-weight="400" text-anchor="start" >dcgm-exporter, vmagent</text>
<text x="60" y="1040" fill="#111827" font-size="12" font-weight="700" text-anchor="start" >Legend</text>
<line x1="125" y1="1050" x2="161" y2="1050" stroke="#2563eb" stroke-width="2" marker-end="url(#arrow-blue)"/>
<text x="171" y="1054" fill="#6b7280" font-size="12" font-weight="400" text-anchor="start" >resource derivation / Ray flow</text>
<line x1="395" y1="1050" x2="431" y2="1050" stroke="#ea580c" stroke-width="2" marker-end="url(#arrow-orange)"/>
<text x="441" y="1054" fill="#6b7280" font-size="12" font-weight="400" text-anchor="start" >reconcile / SSH Docker action</text>
<line x1="665" y1="1050" x2="701" y2="1050" stroke="#16a34a" stroke-width="2" marker-end="url(#arrow-green)"/>
<text x="711" y="1054" fill="#6b7280" font-size="12" font-weight="400" text-anchor="start" >metrics / image config flow</text>
<line x1="935" y1="1050" x2="971" y2="1050" stroke="#9333ea" stroke-width="2" stroke-dasharray="6,4" marker-end="url(#arrow-purple)"/>
<text x="981" y="1054" fill="#6b7280" font-size="12" font-weight="400" text-anchor="start" >health / dashboard status read</text>
<line x1="1205" y1="1050" x2="1241" y2="1050" stroke="#6b7280" stroke-width="2" stroke-dasharray="6,4" marker-end="url(#arrow-gray)"/>
<text x="1251" y="1054" fill="#6b7280" font-size="12" font-weight="400" text-anchor="start" >future phase relation</text>
</svg>
